<svg xmlns="http://www.w3.org/2000/svg" viewBox="0 0 242.8 48.01">
  <title>logo-m</title>
  <g>
    <g>
      <g>
        <g>
          <path d="M55.33,13.11V7.94H52v5.17H49.68V1.52H52V6h3.33V1.52h2.37V13.11H55.33Z"/>
          <path d="M66.85,13.11L66,10.36h-3.4l-0.82,2.75H59.39l3.8-11.63H65.7l3.65,11.63h-2.5Zm-2-7C64.72,5.55,64.37,4,64.37,4S64,5.4,63.82,6.27s-0.37,1.38-.62,2.15h2.27S65.09,7.21,64.84,6.09Z"/>
          <path d="M76.7,13.11c-0.45-.77-0.63-1.08-1.08-1.9-1.15-2.09-1.5-2.65-1.92-2.84a1.13,1.13,0,0,0-.37-0.1v4.84H71.05V1.52h4.32a3.21,3.21,0,0,1,3.4,3.4,3,3,0,0,1-2.58,3.2,2.22,2.22,0,0,1,.48.48c0.67,0.83,2.78,4.5,2.78,4.5H76.7ZM75.48,3.55a4.22,4.22,0,0,0-1.32-.17H73.33V6.52h0.78a2.45,2.45,0,0,0,1.75-.38A1.58,1.58,0,0,0,76.32,5,1.35,1.35,0,0,0,75.48,3.55Z"/>
          <path d="M86,13.19H83.88L79.95,1.52H82.5l1.92,6c0.17,0.52.35,1.17,0.53,2a22.29,22.29,0,0,1,.67-2.32l2-5.74H90Z"/>
          <path d="M96.94,13.11l-0.82-2.75h-3.4l-0.82,2.75H89.48l3.8-11.63h2.52l3.65,11.63h-2.5Zm-2-7C94.81,5.55,94.46,4,94.46,4s-0.33,1.37-.55,2.23-0.37,1.38-.62,2.15h2.27S95.17,7.21,94.92,6.09Z"/>
          <path d="M106.79,13.11c-0.45-.77-0.63-1.08-1.08-1.9-1.15-2.09-1.5-2.65-1.92-2.84a1.14,1.14,0,0,0-.37-0.1v4.84h-2.28V1.52h4.32a3.21,3.21,0,0,1,3.4,3.4,3,3,0,0,1-2.58,3.2,2.22,2.22,0,0,1,.48.48c0.67,0.83,2.78,4.5,2.78,4.5h-2.75Zm-1.22-9.56a4.21,4.21,0,0,0-1.32-.17h-0.83V6.52h0.78A2.45,2.45,0,0,0,106,6.14,1.58,1.58,0,0,0,106.4,5,1.35,1.35,0,0,0,105.57,3.55Z"/>
          <path d="M118.83,11.38A4,4,0,0,1,116,13c-0.43,0-1,.07-1.66.07h-2.82V1.52h2.33c0.66,0,1.55,0,2,.07a3.93,3.93,0,0,1,2.53,1.15A6.12,6.12,0,0,1,120,7.36,6.63,6.63,0,0,1,118.83,11.38Zm-2-7.05a1.92,1.92,0,0,0-1.83-1H113.9v7.86h1.25c1.53,0,2.23-1.19,2.23-3.64A6.5,6.5,0,0,0,116.8,4.32Z"/>
          <path d="M123.8,13.11V0.8h2.08V13.11H123.8Zm6.24,0L125.9,6.55l4-5.75h2.52l-4.26,5.71,4.55,6.6H130Z"/>
          <path d="M135.21,9.14V9.29c0,1.25.46,2.56,2.22,2.56a3.32,3.32,0,0,0,2.24-.89l0.76,1.19a4.85,4.85,0,0,1-3.23,1.19c-2.54,0-4.14-1.83-4.14-4.71a4.92,4.92,0,0,1,1.12-3.52,3.42,3.42,0,0,1,2.76-1.21,3.47,3.47,0,0,1,2.47.92c0.78,0.71,1.17,1.81,1.17,3.91V9.14h-5.37Zm1.73-3.77c-1.1,0-1.71.87-1.71,2.33h3.32C138.55,6.24,137.91,5.37,136.94,5.37Z"/>
          <path d="M147.63,13.11v-6c0-1.23-.29-1.57-1-1.57a3.27,3.27,0,0,0-2,1v6.53h-1.92V6.49a5.35,5.35,0,0,0-.34-2.13l1.78-.5a2.65,2.65,0,0,1,.32,1.28,4.19,4.19,0,0,1,2.75-1.25,2.22,2.22,0,0,1,2.35,2.49v6.72h-1.94Z"/>
          <path d="M157.34,13.11v-6c0-1.23-.28-1.57-1-1.57a3.26,3.26,0,0,0-2,1v6.53h-1.92V6.49a5.34,5.34,0,0,0-.34-2.13l1.78-.5a2.63,2.63,0,0,1,.32,1.28,4.19,4.19,0,0,1,2.75-1.25,2.22,2.22,0,0,1,2.35,2.49v6.72h-1.94Z"/>
          <path d="M163.73,9.14V9.29c0,1.25.46,2.56,2.22,2.56a3.32,3.32,0,0,0,2.24-.89L169,12.15a4.85,4.85,0,0,1-3.24,1.19c-2.54,0-4.14-1.83-4.14-4.71a4.91,4.91,0,0,1,1.12-3.52,3.42,3.42,0,0,1,2.75-1.21,3.47,3.47,0,0,1,2.47.92c0.78,0.71,1.17,1.81,1.17,3.91V9.14h-5.37Zm1.72-3.77c-1.1,0-1.71.87-1.71,2.33h3.32C167.07,6.24,166.43,5.37,165.46,5.37Z"/>
          <path d="M176.74,13.11a2.28,2.28,0,0,1-.16-0.69,2.94,2.94,0,0,1-2.2.89c-2.29,0-3.68-1.8-3.68-4.61s1.56-4.75,3.73-4.75a2.54,2.54,0,0,1,1.94.82s-0.05-.69-0.05-1.48V0l1.94,0.3V10a10,10,0,0,0,.29,3.13h-1.79Zm-0.43-6.87a2.13,2.13,0,0,0-1.63-.73c-1.24,0-1.81,1-1.81,3.17,0,2,.39,3,1.87,3a1.87,1.87,0,0,0,1.58-.85V6.24Z"/>
          <path d="M185,13.31c-0.75,2.17-1.39,3.25-3.5,3.64l-0.64-1.26a3.1,3.1,0,0,0,2.43-2.58h-0.62c-0.25-1-.59-2-0.85-2.79l-2-6.06,2-.34,1.65,5.48c0.14,0.53.46,1.88,0.5,2,0-.07.34-1.35,0.68-2.44l1.49-4.87h2.1Z"/>
          <path d="M194.78,13.34a7.87,7.87,0,0,1-4-1.1l0.78-1.56a6.29,6.29,0,0,0,3.32,1c1.51,0,2.42-.73,2.42-2,0-.91-0.57-1.48-1.83-1.83l-1.32-.37A4,4,0,0,1,191.74,6a3.1,3.1,0,0,1-.52-1.8c0-2.17,1.71-3.65,4.18-3.65a6.83,6.83,0,0,1,3.89,1.17l-0.92,1.44a5.29,5.29,0,0,0-2.9-.94,1.75,1.75,0,0,0-2,1.67c0,0.77.42,1.16,1.64,1.51l1.46,0.43c1.78,0.52,3,1.65,3,3.5C199.58,11.44,197.92,13.34,194.78,13.34Z"/>
          <path d="M205,13.34c-2.45,0-3.82-1.72-3.82-4.62,0-3.27,2-4.84,4-4.84a3.27,3.27,0,0,1,2.49,1l-1,1.3a2.2,2.2,0,0,0-1.51-.7,1.53,1.53,0,0,0-1.42.91,6.07,6.07,0,0,0-.37,2.51,3.63,3.63,0,0,0,.6,2.45,1.58,1.58,0,0,0,1.19.52,2.59,2.59,0,0,0,1.81-.89l0.92,1.19A3.75,3.75,0,0,1,205,13.34Z"/>
          <path d="M214.66,13.11V7c0-1.12-.39-1.44-1.14-1.44a3.33,3.33,0,0,0-2.17,1.1v6.46h-2V2.4a9.48,9.48,0,0,0-.17-2l2-.43a9.68,9.68,0,0,1,.18,2.12V4.06c0,0.57,0,1,0,1a4,4,0,0,1,2.75-1.17A2.43,2.43,0,0,1,216.26,5a3.44,3.44,0,0,1,.3,1.76v6.35h-1.9Z"/>
          <path d="M222.75,13.34c-2.44,0-4-1.83-4-4.71s1.55-4.73,3.93-4.73c2.56,0,4,1.9,4,4.75S225.18,13.34,222.75,13.34Zm0-8c-1.24,0-1.78.94-1.78,3.13,0,2.61.66,3.38,1.83,3.38s1.79-.94,1.79-3.2C224.58,6.14,223.87,5.37,222.73,5.37Z"/>
          <path d="M232.29,13.34c-2.44,0-4-1.83-4-4.71s1.55-4.73,3.93-4.73c2.56,0,4,1.9,4,4.75S234.72,13.34,232.29,13.34Zm0-8c-1.24,0-1.78.94-1.78,3.13,0,2.61.66,3.38,1.83,3.38s1.79-.94,1.79-3.2C234.12,6.14,233.41,5.37,232.27,5.37Z"/>
          <path d="M240.38,13.31c-2,0-2-1.78-2-2.54V3.1a14.54,14.54,0,0,0-.18-2.63l2-.44a11,11,0,0,1,.16,2.47v7.63a2.79,2.79,0,0,0,.2,1.62,0.55,0.55,0,0,0,.64.14l0.32,1.21A3.05,3.05,0,0,1,240.38,13.31Z"/>
        </g>
        <line x1="49.69" y1="19.76" x2="242.3" y2="19.76" style="fill: none;stroke: #ac162c;stroke-width: 0.5px"/>
      </g>
      <g>
        <path d="M59,47.59c-0.66,0-1.53.06-2.67,0.06H49.77V26.8h7c2.55,0,3.87.39,5.13,1.5A4.66,4.66,0,0,1,63.66,32a4.61,4.61,0,0,1-1.41,3.48,4,4,0,0,1-1.92,1.08,5.19,5.19,0,0,1,4.14,5.25A5.49,5.49,0,0,1,59,47.59ZM58.08,30.64a4.21,4.21,0,0,0-1.74-.27H53.91v4.77H56.4a3.89,3.89,0,0,0,1.8-.27,2.66,2.66,0,0,0,1.08-2.13A2.26,2.26,0,0,0,58.08,30.64Zm0.12,8.13a4.91,4.91,0,0,0-1.62-.18H54v5.64H56.7a3,3,0,0,0,2-.48,3.15,3.15,0,0,0,1.08-2.43A2.54,2.54,0,0,0,58.2,38.77Z"/>
        <path d="M67.56,47.65V26.8H79.44L78.9,30.22H71.76V35h6v3.42H71.82V44h7.89v3.6H67.56Z"/>
        <path d="M93.44,47.65h-11V26.8h4.29V44.17h7.47Z"/>
        <path d="M107,30.19h-6.63V35h5.31v3.42h-5.31v9.27h-4.2V26.8h11.31Z"/>
        <path d="M109.33,47.65V26.8h11.88l-0.54,3.42h-7.14V35h6v3.42h-5.91V44h7.89v3.6H109.33Z"/>
        <path d="M134.38,47.65c-0.81-1.38-1.14-1.95-2-3.42-2.07-3.75-2.7-4.77-3.45-5.1a2.14,2.14,0,0,0-.66-0.18v8.7h-4.11V26.8H132a5.78,5.78,0,0,1,6.12,6.12c0,3.12-2.07,5.7-4.65,5.76a4,4,0,0,1,.87.87c1.2,1.5,5,8.1,5,8.1h-5Zm-2.19-17.19a7.57,7.57,0,0,0-2.37-.3h-1.5V35.8h1.41c1.8,0,2.58-.18,3.15-0.69a2.85,2.85,0,0,0,.81-2.1A2.44,2.44,0,0,0,132.18,30.46Z"/>
        <path d="M156.7,48a8.51,8.51,0,0,1-6.81-2.88,10.88,10.88,0,0,1-2.52-7.47,13.35,13.35,0,0,1,1.41-6.48,9,9,0,0,1,8-4.83A8.53,8.53,0,0,1,162,28l-1.89,2.85a5.49,5.49,0,0,0-3.33-1.17,4.32,4.32,0,0,0-3.54,1.8c-0.81,1.2-1.17,2.94-1.17,5.37,0,2.85.24,4.44,0.87,5.58a4.33,4.33,0,0,0,4,2.34,5.39,5.39,0,0,0,3.57-1.35l1.92,2.64A8.51,8.51,0,0,1,156.7,48Z"/>
        <path d="M164.8,47.65V26.8h11.88l-0.54,3.42H169V35h6v3.42h-5.91V44H177v3.6H164.8Z"/>
        <path d="M189.79,47.65l-3.57-8c-1.17-2.61-2.43-5.55-2.82-6.84,0.15,1.71.18,4.17,0.21,5.91l0.12,8.91h-4V26.8h4.65l4,8.34A40.19,40.19,0,0,1,190.59,41c-0.15-1.62-.3-4.29-0.33-5.73l-0.09-8.52h4V47.65h-4.38Z"/>
        <path d="M210.53,30.28h-5V47.65h-4.26V30.28h-5.1V26.8h15Z"/>
        <path d="M212.81,47.65V26.8h11.88l-0.54,3.42H217V35h6v3.42h-5.91V44H225v3.6H212.81Z"/>
        <path d="M237.85,47.65c-0.81-1.38-1.14-1.95-2-3.42-2.07-3.75-2.7-4.77-3.45-5.1a2.14,2.14,0,0,0-.66-0.18v8.7h-4.11V26.8h7.77a5.78,5.78,0,0,1,6.12,6.12c0,3.12-2.07,5.7-4.65,5.76a4,4,0,0,1,.87.87c1.2,1.5,5,8.1,5,8.1h-5Zm-2.19-17.19a7.58,7.58,0,0,0-2.37-.3h-1.5V35.8h1.41c1.8,0,2.58-.18,3.15-0.69a2.85,2.85,0,0,0,.81-2.1A2.44,2.44,0,0,0,235.66,30.46Z"/>
      </g>
    </g>
    <g>
      <path d="M20.18,47.69s-15.8-8.28-19.12-26c-1.46-7.78-1-20.18-1-20.18H40.16s0.47,12.4-1,20.18c-3.32,17.72-19,26-19,26" style="fill-rule: evenodd"/>
      <path d="M20.16,47.22S4.86,38.62,1.64,21.47c-1.41-7.53-1-19.54-1-19.54h38.8s0.46,12-1,19.54C35.33,38.62,20.16,47.22,20.16,47.22" style="fill: #fff;fill-rule: evenodd"/>
      <path d="M20.17,47.09S4.88,38.49,1.66,21.33C0.25,13.8.71,1.8,0.71,1.8h38.8s0.46,12-1,19.54C35.34,38.49,20.17,47.09,20.17,47.09" style="fill: #fff;fill-rule: evenodd"/>
      <path d="M20.17,47.09S4.88,38.49,1.66,21.33C0.25,13.8.71,1.8,0.71,1.8h38.8s0.46,12-1,19.54C35.34,38.49,20.17,47.09,20.17,47.09Z" style="fill: none;stroke: #000;stroke-miterlimit: 3.864;stroke-width: 0.468px"/>
      <polygon points="12.38 41.04 27.86 41.03 26.13 42.73 25 43.65 15.27 43.66 14.02 42.53 12.38 41.04" style="fill: #ac162c;fill-rule: evenodd"/>
      <polygon points="8.2 36.14 32.06 36.14 31.02 37.6 30.18 38.53 10.15 38.54 9.19 37.47 8.2 36.14" style="fill: #ac162c;fill-rule: evenodd"/>
      <polygon points="5.21 31.27 35.06 31.27 33.69 33.66 6.58 33.66 5.75 32.41 5.21 31.27" style="fill: #ac162c;fill-rule: evenodd"/>
      <polygon points="1.69 21.39 1.93 22.7 2.23 23.77 38.1 23.75 38.34 22.56 38.58 21.37 1.69 21.39" style="fill: #ac162c;fill-rule: evenodd"/>
      <polygon points="0.65 2 39.54 2 39.39 7.83 39.36 13.59 0.83 13.59 0.71 11.29 0.62 6.82 0.65 2" style="fill: #ac162c;fill-rule: evenodd"/>
      <polygon points="3 26.26 3.81 28.74 36.29 28.73 37.27 26.26 3 26.26" style="fill: #ac162c;fill-rule: evenodd"/>
      <polygon points="1.05 16.28 39.24 16.28 39.15 17.56 38.97 18.87 1.32 18.86 1.09 17.27 1.05 16.28" style="fill: #ac162c;fill-rule: evenodd"/>
      <path d="M20.16,47.22S4.86,38.62,1.64,21.47c-1.41-7.53-1-19.54-1-19.54h38.8s0.46,12-1,19.54C35.33,38.62,20.16,47.22,20.16,47.22Z" style="fill: none;stroke: #000;stroke-miterlimit: 3.864;stroke-width: 0.468px"/>
      <line x1="0.81" y1="13.66" x2="39.3" y2="13.66" style="fill: none;stroke: #000;stroke-miterlimit: 3.864;stroke-width: 0.34400000000000003px"/>
      <line x1="1.17" y1="18.85" x2="38.95" y2="18.85" style="fill: none;stroke: #000;stroke-miterlimit: 3.864;stroke-width: 0.34400000000000003px"/>
      <line x1="38.56" y1="21.35" x2="1.53" y2="21.35" style="fill: none;stroke: #000;stroke-miterlimit: 3.864;stroke-width: 0.34400000000000003px"/>
      <line x1="2.12" y1="23.73" x2="37.98" y2="23.73" style="fill: none;stroke: #000;stroke-miterlimit: 3.864;stroke-width: 0.34400000000000003px"/>
      <line x1="37.29" y1="26.23" x2="2.95" y2="26.23" style="fill: none;stroke: #000;stroke-miterlimit: 3.864;stroke-width: 0.34400000000000003px"/>
      <line x1="3.79" y1="28.74" x2="36.31" y2="28.74" style="fill: none;stroke: #000;stroke-miterlimit: 3.864;stroke-width: 0.34400000000000003px"/>
      <line x1="35.11" y1="31.24" x2="5.1" y2="31.24" style="fill: none;stroke: #000;stroke-miterlimit: 3.864;stroke-width: 0.34400000000000003px"/>
      <line x1="6.53" y1="33.62" x2="33.69" y2="33.62" style="fill: none;stroke: #000;stroke-miterlimit: 3.864;stroke-width: 0.34400000000000003px"/>
      <line x1="39.18" y1="16.29" x2="1.02" y2="16.29" style="fill: none;stroke: #000;stroke-miterlimit: 3.864;stroke-width: 0.34400000000000003px"/>
      <line x1="32.04" y1="36.12" x2="8.14" y2="36.12" style="fill: none;stroke: #000;stroke-miterlimit: 3.864;stroke-width: 0.34400000000000003px"/>
      <line x1="10.07" y1="38.5" x2="30.22" y2="38.5" style="fill: none;stroke: #000;stroke-miterlimit: 3.864;stroke-width: 0.34400000000000003px"/>
      <line x1="27.9" y1="41.01" x2="12.37" y2="41.01" style="fill: none;stroke: #000;stroke-miterlimit: 3.864;stroke-width: 0.34400000000000003px"/>
      <line x1="15.11" y1="43.63" x2="25.1" y2="43.63" style="fill: none;stroke: #000;stroke-miterlimit: 3.864;stroke-width: 0.34400000000000003px"/>
      <line x1="10.68" y1="10.52" x2="11.33" y2="11.26" style="fill: none;stroke: #000;stroke-miterlimit: 3.864;stroke-width: 0.34400000000000003px"/>
      <line x1="4.23" y1="10.53" x2="3.57" y2="11.24" style="fill: none;stroke: #fff;stroke-miterlimit: 3.864;stroke-width: 0.34400000000000003px"/>
      <path d="M2.73,4.86a1.21,1.21,0,0,1,.21-0.75A1.22,1.22,0,0,1,3.68,4H6.75C7,4,7.06,4.18,7.34,4.18S7.67,4,7.94,4h3.69a0.73,0.73,0,0,1,.57.15,0.94,0.94,0,0,1,.18.66V5.49s1.13-.06,1.16.47-1.16.57-1.16,0.57V9.45s1.16-.15,1.13.51-1.13.5-1.13,0.5V11a1.41,1.41,0,0,1-.15.69,1.49,1.49,0,0,1-1.13.27H3.77a1.23,1.23,0,0,1-.86-0.15,1.22,1.22,0,0,1-.18-0.72V10.55s-1.19.12-1.19-.57,1.19-.57,1.19-0.57V6.53S1.57,6.68,1.53,6s1.19-.57,1.19-0.57V4.86Z" style="fill: #fff;fill-rule: evenodd"/>
      <path d="M2.73,4.86a1.21,1.21,0,0,1,.21-0.75A1.22,1.22,0,0,1,3.68,4H6.75C7,4,7.06,4.18,7.34,4.18S7.67,4,7.94,4h3.69a0.73,0.73,0,0,1,.57.15,0.94,0.94,0,0,1,.18.66V5.49s1.13-.06,1.16.47-1.16.57-1.16,0.57V9.45s1.16-.15,1.13.51-1.13.5-1.13,0.5V11a1.41,1.41,0,0,1-.15.69,1.49,1.49,0,0,1-1.13.27H3.77a1.23,1.23,0,0,1-.86-0.15,1.22,1.22,0,0,1-.18-0.72V10.55s-1.19.12-1.19-.57,1.19-.57,1.19-0.57V6.53S1.57,6.68,1.53,6s1.19-.57,1.19-0.57V4.86Z" style="fill: none;stroke: #000;stroke-miterlimit: 3.864;stroke-width: 0.432px"/>
      <line x1="7.36" y1="4.22" x2="7.36" y2="11.34" style="fill: none;stroke: #000;stroke-miterlimit: 3.864;stroke-width: 0.34400000000000003px"/>
      <path d="M7.45,11.35a0.58,0.58,0,1,1-.58.58,0.58,0.58,0,0,1,.58-0.58" style="fill: #fff;fill-rule: evenodd"/>
      <circle cx="7.45" cy="11.94" r="0.58" style="fill: none;stroke: #000;stroke-miterlimit: 3.864;stroke-width: 0.432px"/>
      <line x1="4.19" y1="10.58" x2="3.53" y2="11.29" style="fill: none;stroke: #000;stroke-miterlimit: 3.864;stroke-width: 0.34400000000000003px"/>
      <path d="M4.1,4V9.75a2,2,0,0,0,.12.89,0.92,0.92,0,0,0,.83.09s1,0.09,1.67.21a1.79,1.79,0,0,1,.66.39" style="fill: none;stroke: #000;stroke-miterlimit: 3.864;stroke-width: 0.34400000000000003px"/>
      <path d="M4.1,4a1.72,1.72,0,0,0-.74,1v5.6a1.2,1.2,0,0,0,.15.71,1.24,1.24,0,0,0,.86.18,6.37,6.37,0,0,1,1.61,0,2.18,2.18,0,0,1,.86.33" style="fill: none;stroke: #000;stroke-miterlimit: 3.864;stroke-width: 0.34400000000000003px"/>
      <path d="M10.77,4.07a1.71,1.71,0,0,1,.74,1v5.6a1.19,1.19,0,0,1-.15.72,1.25,1.25,0,0,1-.86.18,6.41,6.41,0,0,0-1.61,0,2.25,2.25,0,0,0-.86.33" style="fill: none;stroke: #000;stroke-miterlimit: 3.864;stroke-width: 0.34400000000000003px"/>
      <path d="M10.77,4.07V9.79a1.22,1.22,0,0,1-.12.89,1.15,1.15,0,0,1-.83.09s-1,.09-1.67.21a1.76,1.76,0,0,0-.65.39" style="fill: none;stroke: #000;stroke-miterlimit: 3.864;stroke-width: 0.34400000000000003px"/>
      <path d="M15.21,4.86a1.22,1.22,0,0,1,.21-0.75A1.22,1.22,0,0,1,16.16,4h3.07c0.25,0,.31.21,0.6,0.21S20.15,4,20.42,4h3.69a0.73,0.73,0,0,1,.57.15,1,1,0,0,1,.18.66V5.49S26,5.43,26,6s-1.16.57-1.16,0.57V9.45S26,9.3,26,10s-1.13.5-1.13,0.5V11a1.44,1.44,0,0,1-.15.69,1.49,1.49,0,0,1-1.13.27H16.25a1.23,1.23,0,0,1-.86-0.15,1.21,1.21,0,0,1-.18-0.72V10.55S14,10.67,14,10s1.19-.57,1.19-0.57V6.53S14,6.68,14,6s1.19-.57,1.19-0.57V4.86Z" style="fill: #fff;fill-rule: evenodd"/>
      <path d="M15.21,4.86a1.22,1.22,0,0,1,.21-0.75A1.22,1.22,0,0,1,16.16,4h3.07c0.25,0,.31.21,0.6,0.21S20.15,4,20.42,4h3.69a0.73,0.73,0,0,1,.57.15,1,1,0,0,1,.18.66V5.49S26,5.43,26,6s-1.16.57-1.16,0.57V9.45S26,9.3,26,10s-1.13.5-1.13,0.5V11a1.44,1.44,0,0,1-.15.69,1.49,1.49,0,0,1-1.13.27H16.25a1.23,1.23,0,0,1-.86-0.15,1.21,1.21,0,0,1-.18-0.72V10.55S14,10.67,14,10s1.19-.57,1.19-0.57V6.53S14,6.68,14,6s1.19-.57,1.19-0.57V4.86Z" style="fill: none;stroke: #000;stroke-miterlimit: 3.864;stroke-width: 0.432px"/>
      <line x1="19.84" y1="4.22" x2="19.84" y2="11.34" style="fill: none;stroke: #000;stroke-miterlimit: 3.864;stroke-width: 0.34400000000000003px"/>
      <path d="M19.93,11.35a0.58,0.58,0,1,1-.58.58,0.58,0.58,0,0,1,.58-0.58" style="fill: #fff;fill-rule: evenodd"/>
      <circle cx="19.93" cy="11.94" r="0.58" style="fill: none;stroke: #000;stroke-miterlimit: 3.864;stroke-width: 0.432px"/>
      <line x1="16.67" y1="10.58" x2="16.02" y2="11.29" style="fill: none;stroke: #000;stroke-miterlimit: 3.864;stroke-width: 0.34400000000000003px"/>
      <path d="M16.58,4V9.75a2,2,0,0,0,.12.89,0.92,0.92,0,0,0,.83.09s1,0.09,1.67.21a1.79,1.79,0,0,1,.66.39" style="fill: none;stroke: #000;stroke-miterlimit: 3.864;stroke-width: 0.34400000000000003px"/>
      <path d="M16.58,4a1.72,1.72,0,0,0-.74,1v5.6a1.2,1.2,0,0,0,.15.71,1.24,1.24,0,0,0,.86.18,6.35,6.35,0,0,1,1.61,0,2.18,2.18,0,0,1,.86.33" style="fill: none;stroke: #000;stroke-miterlimit: 3.864;stroke-width: 0.34400000000000003px"/>
      <path d="M23.25,4.07A1.71,1.71,0,0,1,24,5v5.6a1.19,1.19,0,0,1-.15.72,1.24,1.24,0,0,1-.86.18,6.4,6.4,0,0,0-1.61,0,2.26,2.26,0,0,0-.86.33" style="fill: none;stroke: #000;stroke-miterlimit: 3.864;stroke-width: 0.34400000000000003px"/>
      <path d="M23.25,4.07V9.79a1.24,1.24,0,0,1-.12.89,1.15,1.15,0,0,1-.83.09s-1,.09-1.67.21a1.76,1.76,0,0,0-.66.39" style="fill: none;stroke: #000;stroke-miterlimit: 3.864;stroke-width: 0.34400000000000003px"/>
      <path d="M27.69,4.86a1.22,1.22,0,0,1,.21-0.75A1.22,1.22,0,0,1,28.64,4h3.07c0.25,0,.31.21,0.6,0.21S32.63,4,32.9,4h3.69a0.73,0.73,0,0,1,.57.15,0.94,0.94,0,0,1,.18.66V5.49s1.13-.06,1.16.47-1.16.57-1.16,0.57V9.45s1.16-.15,1.13.51-1.13.5-1.13,0.5V11a1.43,1.43,0,0,1-.15.69,1.5,1.5,0,0,1-1.13.27H28.73a1.24,1.24,0,0,1-.86-0.15,1.22,1.22,0,0,1-.18-0.72V10.55s-1.19.12-1.19-.57,1.19-.57,1.19-0.57V6.53S26.53,6.68,26.5,6s1.19-.57,1.19-0.57V4.86Z" style="fill: #fff;fill-rule: evenodd"/>
      <path d="M27.69,4.86a1.22,1.22,0,0,1,.21-0.75A1.22,1.22,0,0,1,28.64,4h3.07c0.25,0,.31.21,0.6,0.21S32.63,4,32.9,4h3.69a0.73,0.73,0,0,1,.57.15,0.94,0.94,0,0,1,.18.66V5.49s1.13-.06,1.16.47-1.16.57-1.16,0.57V9.45s1.16-.15,1.13.51-1.13.5-1.13,0.5V11a1.43,1.43,0,0,1-.15.69,1.5,1.5,0,0,1-1.13.27H28.73a1.24,1.24,0,0,1-.86-0.15,1.22,1.22,0,0,1-.18-0.72V10.55s-1.19.12-1.19-.57,1.19-.57,1.19-0.57V6.53S26.53,6.68,26.5,6s1.19-.57,1.19-0.57V4.86Z" style="fill: none;stroke: #000;stroke-miterlimit: 3.864;stroke-width: 0.432px"/>
      <line x1="32.33" y1="4.22" x2="32.33" y2="11.34" style="fill: none;stroke: #000;stroke-miterlimit: 3.864;stroke-width: 0.34400000000000003px"/>
      <path d="M32.42,11.35a0.58,0.58,0,1,1-.58.58,0.58,0.58,0,0,1,.58-0.58" style="fill: #fff;fill-rule: evenodd"/>
      <circle cx="32.42" cy="11.94" r="0.58" style="fill: none;stroke: #000;stroke-miterlimit: 3.864;stroke-width: 0.432px"/>
      <line x1="29.16" y1="10.58" x2="28.5" y2="11.29" style="fill: none;stroke: #000;stroke-miterlimit: 3.864;stroke-width: 0.34400000000000003px"/>
      <path d="M29.06,4V9.75a2,2,0,0,0,.12.89,0.92,0.92,0,0,0,.84.09s1,0.09,1.67.21a1.8,1.8,0,0,1,.65.39" style="fill: none;stroke: #000;stroke-miterlimit: 3.864;stroke-width: 0.34400000000000003px"/>
      <path d="M29.06,4a1.72,1.72,0,0,0-.74,1v5.6a1.2,1.2,0,0,0,.15.71,1.24,1.24,0,0,0,.86.18,6.35,6.35,0,0,1,1.61,0,2.18,2.18,0,0,1,.86.33" style="fill: none;stroke: #000;stroke-miterlimit: 3.864;stroke-width: 0.34400000000000003px"/>
      <path d="M35.74,4.07a1.71,1.71,0,0,1,.74,1v5.6a1.21,1.21,0,0,1-.15.72,1.24,1.24,0,0,1-.86.18,6.41,6.41,0,0,0-1.61,0,2.24,2.24,0,0,0-.86.33" style="fill: none;stroke: #000;stroke-miterlimit: 3.864;stroke-width: 0.34400000000000003px"/>
      <path d="M35.74,4.07V9.79a1.23,1.23,0,0,1-.12.89,1.15,1.15,0,0,1-.83.09s-1,.09-1.67.21a1.76,1.76,0,0,0-.66.39" style="fill: none;stroke: #000;stroke-miterlimit: 3.864;stroke-width: 0.34400000000000003px"/>
      <path d="M7,5.8V5.88a1.78,1.78,0,0,0-.61,1.24C6.07,8.37,6,8.6,5.89,8.6a4.32,4.32,0,0,1-.52-1.51,2.18,2.18,0,0,0-.61-1.22,0.1,0.1,0,0,0,0-.07h1a0.08,0.08,0,0,1,0,.1,3.29,3.29,0,0,0-.13.44A2.58,2.58,0,0,0,6,7.27a2.83,2.83,0,0,0,.41-1.05,0.79,0.79,0,0,0-.18-0.34V5.8A6.87,6.87,0,0,1,7,5.8" style="fill-rule: evenodd"/>
      <path d="M9.07,5.7H9.43c0,0.13.1,0.27,0.1,0.34V6.31c-0.13,0-.1,0-0.1,0C9.24,6.31,9.15,6,9,6H8.66a0.78,0.78,0,0,0-.13.46V6.71a0.21,0.21,0,0,0,.25.22,1.68,1.68,0,0,0,.51-0.3,0.49,0.49,0,0,1,.12.44c0,0.14,0,.37-0.15.37a1.35,1.35,0,0,0-.51-0.29,0.26,0.26,0,0,0-.2.22V8.07a0.3,0.3,0,0,0,.33.32A0.69,0.69,0,0,0,9.55,7.9H9.68a1.15,1.15,0,0,1,.08.29V8.46a0.7,0.7,0,0,1-.3.15H7.9S7.82,8.53,7.8,8.46A2.07,2.07,0,0,1,8.07,8V6.48a1,1,0,0,0-.25-0.61V5.8h1a0.81,0.81,0,0,0,.23-0.1" style="fill-rule: evenodd"/>
      <path d="M20.66,5.72H21.9V5.91a0.51,0.51,0,0,0-.35.4v1.8c0,0.4.36,0.26,0.36,0.44V8.78H20.66V8.54c0-.17.34-0.06,0.34-0.43V6.31a0.48,0.48,0,0,0-.34-0.41V5.72" style="fill-rule: evenodd"/>
      <path d="M34.87,5.67a0.46,0.46,0,0,1,.19.5,0.3,0.3,0,0,0,0,.28H34.9a2.12,2.12,0,0,0-.33-0.39H34.23c-0.13.21-.11,0.07-0.11,0.28,0,0.49,1.19.68,1.19,1.58a0.88,0.88,0,0,1-.56.8H33.93a2.53,2.53,0,0,1,0-.91c0-.09,0-0.17.08-0.17s0.15,0.83.66,0.83A0.37,0.37,0,0,0,35,8.14c0-.69-1.25-0.69-1.25-1.72a0.66,0.66,0,0,1,.47-0.67h0.39a2.14,2.14,0,0,1,.25-0.08" style="fill-rule: evenodd"/>
      <path d="M19.75,8.39H19.64A2.92,2.92,0,0,1,19,7.47a1.45,1.45,0,0,0,.66-1.06,0.74,0.74,0,0,0-.57-0.74H17.35a0.34,0.34,0,0,0,0,.21,0.72,0.72,0,0,1,.34.54v1.7c0,0.1-.27.31-0.27,0.44a0.8,0.8,0,0,1,0,.24h1a1.59,1.59,0,0,0,0-.23c0-.09-0.17-0.21-0.21-0.41a0.86,0.86,0,0,1,0-.4H18.4a2.63,2.63,0,0,0,.92,1h0.41a1.42,1.42,0,0,0,0-.4" style="fill-rule: evenodd"/>
      <path d="M33.37,8.45a2.45,2.45,0,0,0,.33.25V8.78h-1a0.36,0.36,0,0,1-.08-0.14l0.2-.33a4,4,0,0,1-.34-0.4,1.69,1.69,0,0,0-.38,0,1.34,1.34,0,0,0-.21.33c-0.06.1,0,.11,0.22,0.33a0.62,0.62,0,0,1-.07.18c-0.37,0-.81,0-0.93,0H30V8.67a1.06,1.06,0,0,0,.33-0.61V6.59A0.74,0.74,0,0,0,30.16,6a1,1,0,0,0-.5.44H29.55V6.2c0-.06,0-0.69.28-0.69a2.2,2.2,0,0,0,.56.17H31.1a1.49,1.49,0,0,1,.36-0.11c0.12,0,.17.09,0.17,0.22a1.31,1.31,0,0,1-.25.67A1.56,1.56,0,0,1,31,6H30.85a9.55,9.55,0,0,0,0,1.85,3.44,3.44,0,0,0,0,.39,0.34,0.34,0,0,0,.2.33c0.41,0,.52-1,0.72-1.49,0,0,.4-1.44.51-1.74Z" style="fill-rule: evenodd"/>
      <path d="M18.38,6h0.38a0.9,0.9,0,0,1,.33.65,0.58,0.58,0,0,1,0,.13,0.89,0.89,0,0,1-.31.39H18.4a0.63,0.63,0,0,1-.11-0.27c0-.38,0-0.37,0-0.49A0.47,0.47,0,0,1,18.38,6" style="fill: #fff;fill-rule: evenodd"/>
      <path d="M32.34,6.68a1.73,1.73,0,0,1,.29.75,0.58,0.58,0,0,0,0,.19H32a2.84,2.84,0,0,1,.12-0.93h0.17Z" style="fill: #fff;fill-rule: evenodd"/>
    </g>
  </g>
</svg>
